<svg xmlns="http://www.w3.org/2000/svg" xmlns:xlink="http://www.w3.org/1999/xlink" x="0px" y="0px" width="48px" height="48px" viewBox="0 0 48 48"><g >
<path fill="#EFD358" d="M34,27c-7.16797,0-13-5.83154-13-13S26.83203,1,34,1h1v1c0,6.06543,4.93457,11,11,11h1v1
	C47,21.16846,41.16797,27,34,27z"/>
<path fill="#666666" d="M38,37H10c-4.9624,0-9-4.03711-9-9s4.0376-9,9-9c0.81201,0,1.62305,0.11523,2.42188,0.34375
	C14.49805,15.46191,18.55566,13,23,13c4.72412,0,8.96289,2.7666,10.90088,6.99805C35.16895,19.3418,36.56543,19,38,19
	c4.9624,0,9,4.03711,9,9S42.9624,37,38,37z"/>
<path fill="#EFD358" d="M30.90586,33.57617C30.74131,33.22461,30.38828,33,30.0001,33h-6.52295l3.45166-8.62891
	c0.18262-0.45605,0.00586-0.97852-0.4165-1.23047c-0.42236-0.24902-0.96533-0.15723-1.28027,0.21875l-10,12
	c-0.24854,0.29883-0.30225,0.71387-0.1377,1.06445C15.25889,36.77539,15.61192,37,16.0001,37h6.52295l-3.45166,8.62891
	c-0.18262,0.45605-0.00586,0.97852,0.4165,1.23047C19.64756,46.9541,19.82432,47,19.99961,47
	c0.28857,0,0.57275-0.125,0.76855-0.35938l10-12C31.0167,34.3418,31.07041,33.92676,30.90586,33.57617z"/>
</g></svg>